:FULLY-SPECIFIED
:FORCE-ALL-JOINTS-BE-3DOF
:DEGREES
816
root -4.67178 14.6736 -40.4274 403.722 -74.5097 326.039
lfemur -72.1901 19.8727 -24.1149
ltibia 88.8435 0 0
lfoot -8.41546 8.86049 0
ltoes -15.5695 0 0
rfemur -33.6348 -8.35452 22.8846
rtibia 72.7766 0 0
rfoot -33.2407 -26.1162 0
rtoes -22.6641 0 0
lowerback 18.1768 0.49412 4.48202
upperback 0.325826 1.67782 1.42407
thorax -9.80657 0.590115 -1.4284
lowerneck -1.97887 12.8719 5.19265
upperneck -1.96125 17.1076 -9.12922
head 1.05788 8.52237 -3.34956
lclavicle 7.55731e-15 4.68966e-15 0
lhumerus 111.498 -32.099 21.1901
lradius 98.0012 0 0
lwrist 14.0377 0 0
lhand -8.19954 22.7425 0
lfingers 7.12502 0 0
lthumb 17.719 52.0834 0
rclavicle 7.55731e-15 4.68966e-15 0
rhumerus 29.6182 39.3794 -55.2692
rradius 63.2612 0 0
rwrist -7.36158 0 0
rhand -11.0881 -41.3637 0
rfingers 7.12502 0 0
rthumb 14.9188 -70.6107 0
817
root -4.48026 14.6946 -40.4409 400.012 -74.2136 329.748
lfemur -71.9619 20.028 -24.1992
ltibia 88.7723 0 0
lfoot -8.41257 9.03819 0
ltoes -15.5338 0 0
rfemur -33.81 -8.64162 23.088
rtibia 72.5982 0 0
rfoot -33.2691 -26.3952 0
rtoes -22.5427 0 0
lowerback 18.2224 0.463957 4.55994
upperback 0.326035 1.64899 1.37755
thorax -9.82549 0.571369 -1.51691
lowerneck -2.0056 12.9244 5.21394
upperneck -1.92048 17.1787 -9.20048
head 1.08773 8.55702 -3.3702
lclavicle 7.30179e-15 5.33355e-15 0
lhumerus 110.982 -32.7969 19.9627
lradius 99.3231 0 0
lwrist 15.1618 0 0
lhand -8.22594 22.8003 0
lfingers 7.12502 0 0
lthumb 17.6935 52.1274 0
rclavicle 7.30179e-15 5.33355e-15 0
rhumerus 30.0707 39.5814 -55.3711
rradius 63.3624 0 0
rwrist -7.37842 0 0
rhand -11.6512 -41.1928 0
rfingers 7.12502 0 0
rthumb 14.3796 -70.5174 0
818
root -4.28375 14.7157 -40.4493 396.276 -73.8486 333.463
lfemur -71.6727 20.1709 -24.221
ltibia 88.6119 0 0
lfoot -8.36936 9.21445 0
ltoes -15.5029 0 0
rfemur -33.9544 -8.92577 23.2616
rtibia 72.4253 0 0
rfoot -33.2768 -26.668 0
rtoes -22.4158 0 0
lowerback 18.2641 0.437919 4.62418
upperback 0.325057 1.62335 1.33025
thorax -9.84395 0.554904 -1.5993
lowerneck -2.03928 12.9703 5.2283
upperneck -1.86746 17.2413 -9.25889
head 1.12053 8.58728 -3.38541
lclavicle 6.85166e-15 5.97164e-15 0
lhumerus 110.248 -33.4321 18.8165
lradius 100.523 0 0
lwrist 16.2278 0 0
lhand -8.31309 22.8838 0
lfingers 7.12502 0 0
lthumb 17.6094 52.1976 0
rclavicle 6.85166e-15 5.97164e-15 0
rhumerus 30.3319 39.7333 -55.5301
rradius 63.5454 0 0
rwrist -7.4881 0 0
rhand -12.1987 -40.9923 0
rfingers 7.12502 0 0
rthumb 13.8555 -70.3923 0
819
root -4.08199 14.7368 -40.4524 392.513 -73.4118 337.183
lfemur -71.32 20.3004 -24.1778
ltibia 88.3582 0 0
lfoot -8.28363 9.38954 0
ltoes -15.4773 0 0
rfemur -34.0679 -9.20634 23.4039
rtibia 72.2596 0 0
rfoot -33.2632 -26.9339 0
rtoes -22.283 0 0
lowerback 18.3017 0.416237 4.67375
upperback 0.3229 1.60105 1.282
thorax -9.86195 0.540843 -1.67519
lowerneck -2.08021 13.0096 5.23545
upperneck -1.80179 17.2952 -9.304
head 1.15636 8.61306 -3.395
lclavicle 6.19597e-15 6.60402e-15 0
lhumerus 109.286 -34.0022 17.7546
lradius 101.595 0 0
lwrist 17.2345 0 0
lhand -8.46336 22.9939 0
lfingers 7.12502 0 0
lthumb 17.4643 52.295 0
rclavicle 6.19597e-15 6.60402e-15 0
rhumerus 30.3948 39.8328 -55.7478
rradius 63.8127 0 0
rwrist -7.69365 0 0
rhand -12.7293 -40.761 0
rfingers 7.12502 0 0
rthumb 13.3475 -70.2344 0
820
root -3.87469 14.7579 -40.4498 388.721 -72.9003 340.908
lfemur -70.9008 20.4154 -24.067
ltibia 88.0067 0 0
lfoot -8.15318 9.56375 0
ltoes -15.4578 0 0
rfemur -34.1499 -9.48274 23.5135
rtibia 72.1028 0 0
rfoot -33.2273 -27.1921 0
rtoes -22.1439 0 0
lowerback 18.3352 0.399139 4.70766
upperback 0.319576 1.58223 1.23269
thorax -9.8795 0.529311 -1.7442
lowerneck -2.12864 13.042 5.23515
upperneck -1.72307 17.3402 -9.33538
head 1.19533 8.63428 -3.39878
lclavicle 5.32379e-15 7.23077e-15 0
lhumerus 108.086 -34.5045 16.7797
lradius 102.534 0 0
lwrist 18.1807 0 0
lhand -8.6791 23.1314 0
lfingers 7.12502 0 0
lthumb 17.2561 52.4205 0
rclavicle 5.32379e-15 7.23077e-15 0
rhumerus 30.2521 39.8777 -56.0255
rradius 64.1667 0 0
rwrist -7.99811 0 0
rhand -13.2419 -40.4978 0
rfingers 7.12502 0 0
rthumb 12.8567 -70.0423 0
821
root -3.66157 14.7792 -40.4415 384.902 -72.3114 344.638
lfemur -70.4123 20.5148 -23.8857
ltibia 87.5532 0 0
lfoot -7.97581 9.73737 0
ltoes -15.4451 0 0
rfemur -34.2003 -9.75434 23.5888
rtibia 71.9567 0 0
rfoot -33.1684 -27.4419 0
rtoes -21.998 0 0
lowerback 18.3645 0.386855 4.72491
upperback 0.315096 1.56706 1.18217
thorax -9.8966 0.520432 -1.80598
lowerneck -2.18488 13.0674 5.22711
upperneck -1.63087 17.3761 -9.35259
head 1.23752 8.65083 -3.39655
lclavicle 4.22417e-15 7.85199e-15 0
lhumerus 106.639 -34.9364 15.8949
lradius 103.336 0 0
lwrist 19.065 0 0
lhand -8.96267 23.2973 0
lfingers 7.12502 0 0
lthumb 16.9824 52.5749 0
rclavicle 4.22417e-15 7.85199e-15 0
rhumerus 29.8969 39.8657 -56.3648
rradius 64.61 0 0
rwrist -8.40454 0 0
rhand -13.7352 -40.2017 0
rfingers 7.12502 0 0
rthumb 12.3844 -69.8148 0
822
root -3.4544 14.7998 -40.4286 381.228 -71.6783 348.205
lfemur -69.8681 20.5931 -23.6387
ltibia 87.0132 0 0
lfoot -7.75692 9.90644 0
ltoes -15.4342 0 0
rfemur -34.215 -10.0156 23.6266
rtibia 71.8262 0 0
rfoot -33.0888 -27.6761 0
rtoes -21.8512 0 0
lowerback 18.389 0.380415 4.72623
upperback 0.309627 1.55693 1.1322
thorax -9.91271 0.514829 -1.85926
lowerneck -2.24759 13.0836 5.21119
upperneck -1.52728 17.4 -9.35464
head 1.28189 8.66126 -3.38819
lclavicle 2.94923e-15 8.40787e-15 0
lhumerus 105.007 -35.2835 15.1447
lradius 103.975 0 0
lwrist 19.8468 0 0
lhand -9.3082 23.4902 0
lfingers 7.12502 0 0
lthumb 16.6489 52.7573 0
rclavicle 2.94923e-15 8.40787e-15 0
rhumerus 29.3363 39.7948 -56.7571
rradius 65.1335 0 0
rwrist -8.89966 0 0
rhand -14.1905 -39.8845 0
rfingers 7.12502 0 0
rthumb 11.9485 -69.5613 0
823
root -3.26466 14.8189 -40.4126 377.867 -71.0364 351.451
lfemur -69.2851 20.6462 -23.3341
ltibia 86.4074 0 0
lfoot -7.50465 10.0666 0
ltoes -15.4199 0 0
rfemur -34.1909 -10.2616 23.6255
rtibia 71.714 0 0
rfoot -32.9921 -27.8886 0
rtoes -21.7097 0 0
lowerback 18.4078 0.380479 4.71353
upperback 0.303321 1.55296 1.08469
thorax -9.92728 0.512922 -1.90323
lowerneck -2.31507 13.0888 5.18762
upperneck -1.41493 17.4092 -9.3412
head 1.32729 8.66434 -3.37387
lclavicle 1.56272e-15 8.843e-15 0
lhumerus 103.261 -35.5352 14.5676
lradius 104.434 0 0
lwrist 20.4891 0 0
lhand -9.70666 23.7073 0
lfingers 7.12502 0 0
lthumb 16.2644 52.9651 0
rclavicle 1.56272e-15 8.843e-15 0
rhumerus 28.5871 39.6662 -57.1918
rradius 65.7247 0 0
rwrist -9.46655 0 0
rhand -14.5911 -39.5589 0
rfingers 7.12502 0 0
rthumb 11.5651 -69.2925 0
824
root -3.09161 14.8367 -40.3936 374.807 -70.3854 354.387
lfemur -68.6657 20.6757 -22.9743
ltibia 85.7393 0 0
lfoot -7.22091 10.2176 0
ltoes -15.4022 0 0
rfemur -34.1286 -10.4928 23.5871
rtibia 71.6182 0 0
rfoot -32.8788 -28.0803 0
rtoes -21.5735 0 0
lowerback 18.4212 0.386724 4.68757
upperback 0.296161 1.55485 1.03966
thorax -9.94032 0.514535 -1.93821
lowerneck -2.38705 13.0832 5.15671
upperneck -1.29423 17.4044 -9.31276
head 1.37361 8.66031 -3.35379
lclavicle 7.11188e-17 9.16399e-15 0
lhumerus 101.406 -35.6945 14.1573
lradius 104.719 0 0
lwrist 20.9959 0 0
lhand -10.1556 23.9475 0
lfingers 7.12502 0 0
lthumb 15.8312 53.197 0
rclavicle 7.11188e-17 9.16399e-15 0
rhumerus 27.6562 39.4822 -57.6675
rradius 66.3809 0 0
rwrist -10.1028 0 0
rhand -14.9392 -39.2251 0
rfingers 7.12502 0 0
rthumb 11.232 -69.0088 0
825
root -2.93453 14.8531 -40.3716 372.037 -69.7252 357.025
lfemur -68.0124 20.683 -22.5619
ltibia 85.012 0 0
lfoot -6.90761 10.359 0
ltoes -15.3814 0 0
rfemur -34.029 -10.7096 23.5131
rtibia 71.5372 0 0
rfoot -32.7496 -28.2521 0
rtoes -21.4428 0 0
lowerback 18.4291 0.398823 4.64908
upperback 0.288131 1.5623 0.997184
thorax -9.95187 0.519489 -1.96451
lowerneck -2.46326 13.0674 5.11875
upperneck -1.1656 17.3859 -9.26985
head 1.42077 8.64944 -3.32816
lclavicle -1.51909e-15 9.37748e-15 0
lhumerus 99.4461 -35.7645 13.9076
lradius 104.836 0 0
lwrist 21.3715 0 0
lhand -10.6527 24.2094 0
lfingers 7.12502 0 0
lthumb 15.3515 53.4519 0
rclavicle -1.51909e-15 9.37748e-15 0
rhumerus 26.5507 39.2452 -58.1828
rradius 67.0995 0 0
rwrist -10.8059 0 0
rhand -15.2368 -38.8837 0
rfingers 7.12502 0 0
rthumb 10.9472 -68.7111 0
826
root -2.79271 14.8681 -40.3466 369.543 -69.0558 359.377
lfemur -67.3275 20.6696 -22.0992
ltibia 84.2291 0 0
lfoot -6.56666 10.4907 0
ltoes -15.3576 0 0
rfemur -33.8928 -10.9123 23.405
rtibia 71.469 0 0
rfoot -32.6051 -28.4047 0
rtoes -21.3175 0 0
lowerback 18.4315 0.416451 4.59884
upperback 0.279215 1.57502 0.957296
thorax -9.96192 0.527607 -1.98244
lowerneck -2.54344 13.0416 5.07407
upperneck -1.02947 17.3542 -9.21296
head 1.46868 8.63196 -3.29721
lclavicle -3.20143e-15 9.4901e-15 0
lhumerus 97.387 -35.748 13.8122
lradius 104.789 0 0
lwrist 21.6199 0 0
lhand -11.1955 24.4919 0
lfingers 7.12502 0 0
lthumb 14.8277 53.7284 0
rclavicle -3.20143e-15 9.4901e-15 0
rhumerus 25.2775 38.9579 -58.7364
rradius 67.8778 0 0
rwrist -11.5736 0 0
rhand -15.4862 -38.5348 0
rfingers 7.12502 0 0
rthumb 10.7087 -68.3997 0
